#!OML:ASF F:\VICON\USERDATA\INSTALL\rory3\rory3.ASF
:FULLY-SPECIFIED
:DEGREES
682
root -1.81101 14.9335 25.1768 -42.7872 -19.6137 22.5231
lowerback -11.0222 -1.74085 6.27622
upperback -7.15023 -2.94134 6.85517
thorax -1.28052 -1.56198 3.35522
lowerneck -3.94119 -11.9145 -11.7604
upperneck 37.3733 -14.2485 -10.9743
head 13.4694 -9.75643 -4.26633
rclavicle 1.27222e-014 -2.8625e-014
rhumerus 8.61305 67.1639 -103.172
rradius 48.6893
rwrist -14.4549
rhand -14.5539 -52.6107
rfingers 7.12502
rthumb -168.405 817.73
lclavicle 1.27222e-014 -2.8625e-014
lhumerus 44.4652 19.4948 60.6076
lradius 19.5073
lwrist 38.6768
lhand -32.866 -11.2773
lfingers 7.12502
lthumb -6.08482 18.6153
rfemur -51.6742 -10.2772 38.399
rtibia 74.3831
rfoot -1.88382 -19.6633
rtoes 21.3912
lfemur -23.2189 5.43475 -19.2992
ltibia 107.704
lfoot -16.6788 5.28292
ltoes -5.31171
683
root -1.80662 14.9106 25.1403 -42.4189 -21.1897 21.1973
lowerback -10.498 -1.42196 8.40761
upperback -7.04215 -2.65959 7.3106
thorax -1.55814 -1.48615 2.70473
lowerneck -4.13413 -11.9878 -11.5735
upperneck 37.6442 -14.2906 -11.1978
head 13.5875 -9.7858 -4.42806
rclavicle -6.04305e-014 0
rhumerus 9.61134 67.4606 -102.415
rradius 48.4077
rwrist -15.087
rhand -14.6099 -52.4492
rfingers 7.12502
rthumb -168.459 817.888
lclavicle -6.04305e-014 0
lhumerus 44.8286 19.5839 60.4866
lradius 19.5494
lwrist 38.6215
lhand -32.5538 -9.07498
lfingers 7.12502
lthumb -5.78343 20.8261
rfemur -50.8311 -9.68191 40.8957
rtibia 73.3289
rfoot -1.30009 -19.9657
rtoes 21.1949
lfemur -23.037 6.66154 -15.6978
ltibia 108.065
lfoot -17.3198 3.92878
ltoes -5.66006
684
root -1.81576 14.918 25.0998 -42.4464 -22.2007 20.555
lowerback -10.0624 -1.18126 9.78783
upperback -6.78395 -2.42514 7.50959
thorax -1.58846 -1.40676 2.18742
lowerneck -4.50808 -12.0202 -11.4335
upperneck 37.8991 -14.2793 -11.249
head 13.7594 -9.76972 -4.52978
rclavicle -9.54166e-015 -9.54166e-015
rhumerus 10.8326 67.9074 -101.463
rradius 48.3452
rwrist -15.7613
rhand -14.9789 -52.4039
rfingers 7.12502
rthumb -168.815 817.914
lclavicle -9.54166e-015 -9.54166e-015
lhumerus 44.8666 18.9544 59.3724
lradius 19.6384
lwrist 39.0141
lhand -33.3767 -8.48829
lfingers 7.12502
lthumb -6.57787 21.3895
rfemur -49.7172 -9.25978 42.328
rtibia 72.3427
rfoot -1.23887 -20.3062
rtoes 21.6995
lfemur -22.3318 7.58216 -13.3172
ltibia 108.011
lfoot -17.7975 2.8402
ltoes -4.98614
685
root -1.79342 14.8591 25.1046 -42.4074 -22.8357 20.1861
lowerback -9.79681 -1.00151 10.7515
upperback -6.59071 -2.24761 7.58916
thorax -1.57244 -1.34294 1.76508
lowerneck -4.74524 -11.9749 -11.4275
upperneck 37.9759 -14.2834 -10.864
head 13.8781 -9.71039 -4.41636
rclavicle -4.45278e-014 -3.18055e-014
rhumerus 11.9234 68.4612 -100.531
rradius 48.8255
rwrist -16.2994
rhand -15.1818 -52.9068
rfingers 7.12502
rthumb -169.011 817.401
lclavicle -4.45278e-014 -3.18055e-014
lhumerus 45.0776 18.7404 58.8781
lradius 19.451
lwrist 39.1728
lhand -33.6901 -9.84396
lfingers 7.12502
lthumb -6.88044 20.0242
rfemur -48.9881 -8.81081 43.3837
rtibia 71.2619
rfoot 0.919202 -20.69
rtoes 17.3529
lfemur -22.0769 8.1442 -11.8284
ltibia 108.477
lfoot -18.3734 2.25422
ltoes -4.801
686
root -1.80738 14.8922 25.0374 -42.3814 -23.6032 19.6364
lowerback -9.44297 -0.816646 11.9889
upperback -6.38112 -2.06644 7.66491
thorax -1.59837 -1.28512 1.19631
lowerneck -4.96885 -11.964 -11.3494
upperneck 38.12 -14.3145 -10.6292
head 14.0024 -9.67707 -4.37847
rclavicle -6.67916e-014 3.18055e-015
rhumerus 12.3226 68.5014 -100.366
rradius 48.8486
rwrist -16.3048
rhand -15.0724 -53.0473
rfingers 7.12502
rthumb -168.905 817.266
lclavicle -6.67916e-014 3.18055e-015
lhumerus 45.2757 18.685 58.6886
lradius 19.1739
lwrist 39.1076
lhand -33.3096 -12.286
lfingers 7.12502
lthumb -6.51306 17.5939
rfemur -48.3645 -8.5303 44.4813
rtibia 71.1059
rfoot -1.52233 -20.8642
rtoes 23.8964
lfemur -21.247 8.68559 -9.86576
ltibia 108.088
lfoot -18.5849 1.3193
ltoes -4.90134
687
root -1.78994 14.8505 25.0278 -42.2499 -24.3661 18.8925
lowerback -8.94693 -0.690589 13.0706
upperback -6.32032 -1.90152 7.95611
thorax -1.84467 -1.24017 0.951225
lowerneck -5.21314 -12.0272 -11.2899
upperneck 38.4538 -14.3141 -10.8749
head 14.1797 -9.70807 -4.54474
rclavicle 1.27222e-014 -6.67916e-014
rhumerus 12.3515 68.5678 -100.264
rradius 48.8579
rwrist -16.4628
rhand -14.7535 -52.9072
rfingers 7.12502
rthumb -168.598 817.423
lclavicle 1.27222e-014 -6.67916e-014
lhumerus 45.0131 18.3147 58.4007
lradius 18.9914
lwrist 38.929
lhand -33.1558 -15.2042
lfingers 7.12502
lthumb -6.36465 14.6802
rfemur -47.9206 -8.3828 45.8872
rtibia 71.1154
rfoot -0.624089 -21.1519
rtoes 20.6365
lfemur -20.807 8.99381 -7.90508
ltibia 108.206
lfoot -18.9045 0.728452
ltoes -5.56645
